<?xml version="1.0" encoding="UTF-8" standalone="no"?>
<!-- Created with Inkscape (http://www.inkscape.org/) -->

<svg width="256px" height="256px" viewBox="0 0 846.62714 843.4928" version="1.1" id="svg37" xmlns="http://www.w3.org/2000/svg" xmlns:svg="http://www.w3.org/2000/svg">
    <defs id="defs34"></defs>
    <g id="layer1" transform="translate(-466.37014,-58.228615)">
        <circle style="fill:#fff" id="path498" cx="891.87592" cy="477.67914" r="14.561605"></circle>
        <path style="fill: rgb(130, 130, 241);" id="path662" d="M 561.43082,407.72496 331.66964,407.70523 101.90846,407.6855 216.80614,208.71635 331.70382,9.7471934 446.56732,208.73608 Z" transform="matrix(0,0.91198213,-0.4938447,0,1093.6637,-34.710077)"></path>
        <path style="fill: rgb(130, 130, 241);" id="path662-5" d="M 561.43082,407.72496 331.66964,407.70523 101.90846,407.6855 216.80614,208.71635 331.70382,9.7471934 446.56732,208.73608 Z" transform="matrix(-0.00446024,-0.91197123,0.4938388,-0.00241526,690.4145,995.64368)"></path>
        <path style="fill: rgb(130, 130, 241);" id="path662-8" d="M 561.43082,407.72496 331.66964,407.70523 101.90846,407.6855 216.80614,208.71635 331.70382,9.7471934 446.56732,208.73608 Z" transform="matrix(0.91198213,-5.3635084e-5,2.9043046e-5,0.4938447,373.41961,275.1558)"></path>
        <path style="fill: rgb(130, 130, 241);" id="path662-8-5" d="M 561.43082,407.72496 331.66964,407.70523 101.90846,407.6855 216.80614,208.71635 331.70382,9.7471934 446.56732,208.73608 Z" transform="matrix(-0.91198213,5.3635084e-5,-2.9043046e-5,-0.4938447,1405.9478,683.07914)"></path>
        <path style="fill: rgb(190, 190, 230);" id="path754-9" d="m 1596.9228,441.70205 -524.8754,-1.13885 263.424,-453.985949 z" transform="matrix(-0.65833587,-0.61352309,0.37813506,-0.42123922,1777.728,1653.5124)"></path>
        <path style="fill: rgb(190, 190, 230);" id="path754-2" d="m 1596.9228,441.70205 -524.8754,-1.13885 263.424,-453.985949 z" transform="matrix(0.61172165,-0.66001008,0.42227103,0.37698245,-276.58728,1367.8947)"></path>
        <path style="fill: rgb(190, 190, 230);" id="path754-2-2" d="m 1596.9228,441.70205 -524.8754,-1.13885 263.424,-453.985949 z" transform="matrix(-0.61172165,0.66001008,-0.42227103,-0.37698245,2058.4953,-408.47893)"></path>
        <path style="fill: rgb(190, 190, 230);" id="path754-4" d="m 1596.9228,441.70205 -524.8754,-1.13885 263.424,-453.985949 z" transform="matrix(0.65926903,0.61252023,-0.37749338,0.42181435,3.2079358,-689.92279)"></path>
    </g>
</svg>